<svg width="407" height="70" viewBox="0 0 407 70" fill="none" xmlns="http://www.w3.org/2000/svg">
<g filter="url(#filter0_d_10_47)">
<path d="M35 48.4985L7.50001 53.9985H3.00001V41.9985L4.50001 35.9985L3.00001 28.4985V21.9985L10 15.9985H35L37.5 21.9985L32 28.4985L37.5 34.4985L35 48.4985Z" fill="white"/>
<path d="M56.5 19.4985L45 21.9985L42.5 30.4985L48 35.9985L63 28.4985L56.5 19.4985Z" fill="white"/>
<path d="M93.5 24.4985L81 21.9985L74.5 25.9985L74 34.4985L88 44.4985L95.5 34.4985L93.5 24.4985Z" fill="white"/>
<path d="M263 34.4985L256 51.9985H237.5L229.5 40.9985L228 30.4985L232 20.4985L242 14.9985L256 16.9985L263 34.4985Z" fill="white"/>
<path d="M317.5 30.4985L306 20.4985L297.5 29.4985L298.5 37.4985L309.5 40.9985L317.5 30.4985Z" fill="white"/>
<path d="M381 32.9985L386.5 20.4985H400.5V29.4985L389 34.9985L381 32.9985Z" fill="white"/>
<path d="M38.632 51.3265C38.632 54.8679 37.3947 57.8545 34.92 60.2865C32.488 62.7612 29.5013 63.9985 25.96 63.9985H7.78401C5.73601 63.9985 3.98668 63.2732 2.53601 61.8225C1.12801 60.4145 0.424011 58.6865 0.424011 56.6385V43.8385C0.424011 43.1985 0.509345 42.5585 0.680011 41.9185C0.509345 41.1079 0.424011 40.2759 0.424011 39.4225C0.424011 37.1185 1.00001 34.9852 2.15201 33.0225C1.00001 31.0599 0.424011 28.9265 0.424011 26.6225C0.424011 23.0812 1.64001 20.0945 4.07201 17.6625C6.54668 15.1879 9.55468 13.9505 13.096 13.9505H31.272C33.32 13.9505 35.048 14.6759 36.456 16.1265C37.9067 17.5345 38.632 19.2625 38.632 21.3105C38.632 24.1692 37.3947 26.3025 34.92 27.7105C37.3947 29.1185 38.632 31.2519 38.632 34.1105V51.3265ZM35.432 38.5265C35.432 35.9239 34.4933 33.7052 32.616 31.8705C30.7813 29.9932 28.5627 29.0545 25.96 29.0545H24.616C23.3787 29.0545 22.76 28.4572 22.76 27.2625C22.76 26.0679 23.3573 25.4705 24.552 25.4705H31.208C32.36 25.4705 33.3413 25.0652 34.152 24.2545C35.0053 23.4439 35.432 22.4625 35.432 21.3105C35.432 20.1585 35.0267 19.1772 34.216 18.3665C33.4053 17.5559 32.424 17.1505 31.272 17.1505H13.096C10.4933 17.1505 8.25335 18.0892 6.37601 19.9665C4.54135 21.8012 3.62401 24.0199 3.62401 26.6225C3.62401 29.2679 4.54135 31.5079 6.37601 33.3425C8.21068 35.1772 10.4507 36.0945 13.096 36.0945C14.3333 36.0945 14.952 36.6919 14.952 37.8865C14.952 39.0812 14.3547 39.6785 13.16 39.6785H7.84801C6.69601 39.6785 5.69335 40.0839 4.84001 40.8945C4.02934 41.7052 3.62401 42.6865 3.62401 43.8385C3.62401 44.9905 4.02934 45.9719 4.84001 46.7825C5.65068 47.5932 6.63201 47.9985 7.78401 47.9985H25.96C28.5627 47.9985 30.7813 47.0812 32.616 45.2465C34.4933 43.3692 35.432 41.1292 35.432 38.5265Z" fill="#003366"/>
<path d="M66.5415 26.5585C66.5415 29.2039 65.6242 31.4439 63.7895 33.2785C61.9975 35.1132 59.7788 36.0305 57.1335 36.0305H53.9975C52.7175 36.0305 52.0775 36.6705 52.0775 37.9505C52.0775 39.2305 52.7175 39.8705 53.9975 39.8705H62.2535C63.4055 39.8705 64.3655 40.2759 65.1335 41.0865C65.9442 41.8545 66.3495 42.8145 66.3495 43.9665C66.3495 45.1185 65.9442 46.0999 65.1335 46.9105C64.3655 47.6785 63.4055 48.0625 62.2535 48.0625H53.4855C49.1762 48.0625 45.5282 46.5692 42.5415 43.5825C39.5548 40.5532 38.0615 36.8839 38.0615 32.5745C38.0615 28.2652 39.5548 24.6172 42.5415 21.6305C45.5282 18.6439 49.1762 17.1505 53.4855 17.1505H57.1335C59.7362 17.1505 61.9548 18.0679 63.7895 19.9025C65.6242 21.7372 66.5415 23.9559 66.5415 26.5585ZM58.7975 26.4305C58.7975 25.8332 58.5842 25.3212 58.1575 24.8945C57.7308 24.4679 57.2188 24.2545 56.6215 24.2545C55.1282 24.2545 54.3815 24.9799 54.3815 26.4305C54.3815 27.9239 55.1282 28.6705 56.6215 28.6705C58.0722 28.6705 58.7975 27.9239 58.7975 26.4305ZM54.5095 22.9745C54.5095 21.9505 53.9975 21.4385 52.9735 21.4385C51.9495 21.4385 51.4375 21.9505 51.4375 22.9745C51.4375 23.9985 51.9495 24.5105 52.9735 24.5105C53.9975 24.5105 54.5095 23.9985 54.5095 22.9745ZM53.4215 28.7345C53.4215 27.6252 53.0162 26.6865 52.2055 25.9185C51.4375 25.1079 50.4988 24.7025 49.3895 24.7025C48.2375 24.7025 47.2562 25.0865 46.4455 25.8545C45.6775 26.6225 45.2935 27.5825 45.2935 28.7345C45.2935 29.8865 45.6775 30.8679 46.4455 31.6785C47.2562 32.4465 48.2375 32.8305 49.3895 32.8305C50.5415 32.8305 51.5015 32.4465 52.2695 31.6785C53.0375 30.8679 53.4215 29.8865 53.4215 28.7345Z" fill="#003366"/>
<path d="M100.87 42.2385C100.87 43.8172 100.294 45.1825 99.1415 46.3345C98.0322 47.4439 96.6882 47.9985 95.1095 47.9985H94.6615C93.5948 47.9985 92.5922 47.7212 91.6535 47.1665C89.5202 48.1905 87.2588 48.7025 84.8695 48.7025C80.4322 48.7025 76.6775 47.1879 73.6055 44.1585C70.5762 41.0865 69.0615 37.3319 69.0615 32.8945C69.0615 28.4999 70.5975 24.7879 73.6695 21.7585C76.7415 18.6865 80.4748 17.1505 84.8695 17.1505C87.0028 17.1505 89.0722 17.5772 91.0775 18.4305C92.1015 17.5772 93.2962 17.1505 94.6615 17.1505H95.1095C96.6882 17.1505 98.0322 17.7265 99.1415 18.8785C100.294 19.9879 100.87 21.3319 100.87 22.9105V42.2385ZM92.6775 31.7425C92.6775 30.8892 92.2295 30.4625 91.3335 30.4625C90.4802 30.4625 90.0535 30.8892 90.0535 31.7425C90.0535 32.6385 90.4802 33.0865 91.3335 33.0865C92.2295 33.0865 92.6775 32.6385 92.6775 31.7425ZM88.8375 29.5025C88.8375 27.9665 88.2828 26.6652 87.1735 25.5985C86.1068 24.4892 84.8055 23.9345 83.2695 23.9345C81.7335 23.9345 80.4108 24.4892 79.3015 25.5985C78.2348 26.6652 77.7015 27.9665 77.7015 29.5025C77.7015 31.0385 78.2348 32.3612 79.3015 33.4705C80.4108 34.5372 81.7335 35.0705 83.2695 35.0705C84.8055 35.0705 86.1068 34.5372 87.1735 33.4705C88.2828 32.3612 88.8375 31.0385 88.8375 29.5025ZM91.0135 36.4785C91.0135 35.8812 90.8002 35.3905 90.3735 35.0065C89.9468 34.5799 89.4348 34.3665 88.8375 34.3665C88.2402 34.3665 87.7282 34.5799 87.3015 35.0065C86.9175 35.3905 86.7255 35.8812 86.7255 36.4785C86.7255 37.9292 87.4295 38.6545 88.8375 38.6545C89.4348 38.6545 89.9468 38.4412 90.3735 38.0145C90.8002 37.5879 91.0135 37.0759 91.0135 36.4785Z" fill="#003366"/>
<path d="M135.115 36.6705C135.115 37.8652 134.71 38.8679 133.899 39.6785C133.131 40.4892 132.15 40.8945 130.955 40.8945C129.76 40.8945 128.758 40.5105 127.947 39.7425C127.136 38.9319 126.731 37.9292 126.731 36.7345V36.4785C126.731 35.2412 126.283 34.1745 125.387 33.2785C124.491 32.3825 123.424 31.9345 122.187 31.9345C120.907 31.9345 119.819 32.3825 118.923 33.2785C118.07 34.1319 117.643 35.1985 117.643 36.4785V42.2385C117.643 43.8172 117.067 45.1825 115.915 46.3345C114.806 47.4439 113.462 47.9985 111.883 47.9985H109.259C107.68 47.9985 106.315 47.4439 105.163 46.3345C104.054 45.1825 103.499 43.8172 103.499 42.2385V22.9105C103.499 21.3319 104.054 19.9879 105.163 18.8785C106.315 17.7265 107.68 17.1505 109.259 17.1505H109.707C110.987 17.1505 112.139 17.5559 113.163 18.3665C115.126 17.5132 117.174 17.0865 119.307 17.0865C123.787 17.0865 127.542 18.6439 130.571 21.7585C133.6 24.8732 135.115 28.6705 135.115 33.1505V36.6705Z" fill="#003366"/>
<path d="M169.492 42.2385C169.492 43.8599 168.937 45.2252 167.828 46.3345C166.718 47.4439 165.353 47.9985 163.732 47.9985H153.62C149.225 47.9985 145.492 46.4625 142.42 43.3905C139.348 40.3185 137.812 36.5852 137.812 32.1905C137.812 27.7959 139.326 24.0839 142.356 21.0545C145.428 18.0252 149.182 16.4892 153.62 16.4465L165.332 16.3825C166.484 16.3825 167.465 16.8092 168.276 17.6625C169.086 18.4732 169.492 19.4545 169.492 20.6065C169.492 21.7585 169.086 22.7612 168.276 23.6145C167.465 24.4252 166.484 24.8305 165.332 24.8305H158.42C157.14 24.8305 156.052 25.2785 155.156 26.1745C154.302 27.0279 153.876 28.0945 153.876 29.3745C153.876 30.6119 154.324 31.6785 155.22 32.5745C156.116 33.4705 157.182 33.9185 158.42 33.9185L163.732 33.8545C165.31 33.8545 166.654 34.4305 167.764 35.5825C168.916 36.6919 169.492 38.0359 169.492 39.6145V42.2385Z" fill="#003366"/>
<path d="M203.74 43.7745C203.74 44.9692 203.335 45.9719 202.524 46.7825C201.756 47.5932 200.775 47.9985 199.58 47.9985C198.385 47.9985 197.383 47.6145 196.572 46.8465C195.761 46.0359 195.356 45.0332 195.356 43.8385V36.4785C195.356 35.2412 194.908 34.1745 194.012 33.2785C193.116 32.3825 192.049 31.9345 190.812 31.9345C189.532 31.9345 188.444 32.3825 187.548 33.2785C186.695 34.1319 186.268 35.1985 186.268 36.4785V42.2385C186.268 43.8172 185.692 45.1825 184.54 46.3345C183.431 47.4439 182.087 47.9985 180.508 47.9985H177.884C176.305 47.9985 174.94 47.4439 173.788 46.3345C172.679 45.1825 172.124 43.8172 172.124 42.2385V8.89454C172.124 7.31587 172.679 5.97187 173.788 4.86253C174.94 3.71053 176.305 3.13453 177.884 3.13453H178.332C179.911 3.13453 181.255 3.71053 182.364 4.86253C183.516 5.97187 184.092 7.31587 184.092 8.89454V17.5985C185.329 17.2572 186.609 17.0865 187.932 17.0865C192.369 17.0865 196.103 18.6439 199.132 21.7585C202.204 24.8732 203.74 28.6705 203.74 33.1505V43.7745Z" fill="#003366"/>
<path d="M261.179 39.3585C261.179 40.4252 261.051 41.4492 260.795 42.4305C260.923 42.9425 260.987 43.4545 260.987 43.9665V56.7665C260.987 58.8145 260.283 60.5425 258.875 61.9505C257.467 63.3585 255.739 64.0625 253.691 64.0625H244.923C239.76 64.0625 235.366 62.2279 231.739 58.5585C228.112 54.9319 226.299 50.5372 226.299 45.3745V32.5745C226.299 27.4119 228.112 23.0172 231.739 19.3905C235.366 15.7639 239.76 13.9505 244.923 13.9505H248.571C252.07 13.9505 255.035 15.1879 257.467 17.6625C259.942 20.0945 261.179 23.0599 261.179 26.5585V39.3585ZM257.979 26.5585C257.979 23.9559 257.062 21.7372 255.227 19.9025C253.392 18.0679 251.174 17.1505 248.571 17.1505H244.923C240.614 17.1505 236.966 18.6439 233.979 21.6305C230.992 24.6172 229.499 28.2652 229.499 32.5745C229.499 36.8839 230.992 40.5532 233.979 43.5825C236.966 46.5692 240.614 48.0625 244.923 48.0625H253.691C254.843 48.0625 255.803 47.6785 256.571 46.9105C257.382 46.0999 257.787 45.1185 257.787 43.9665C257.787 42.8145 257.382 41.8545 256.571 41.0865C255.803 40.2759 254.843 39.8705 253.691 39.8705H245.435C244.155 39.8705 243.515 39.2305 243.515 37.9505C243.515 36.6705 244.155 36.0305 245.435 36.0305H248.571C251.216 36.0305 253.435 35.1132 255.227 33.2785C257.062 31.4439 257.979 29.2039 257.979 26.5585ZM250.235 26.4305C250.235 27.9239 249.51 28.6705 248.059 28.6705C246.566 28.6705 245.819 27.9239 245.819 26.4305C245.819 24.9799 246.566 24.2545 248.059 24.2545C248.656 24.2545 249.168 24.4679 249.595 24.8945C250.022 25.3212 250.235 25.8332 250.235 26.4305ZM245.947 22.9745C245.947 23.9985 245.435 24.5105 244.411 24.5105C243.387 24.5105 242.875 23.9985 242.875 22.9745C242.875 21.9505 243.387 21.4385 244.411 21.4385C245.435 21.4385 245.947 21.9505 245.947 22.9745ZM244.859 28.7345C244.859 29.8865 244.475 30.8679 243.707 31.6785C242.939 32.4465 241.979 32.8305 240.827 32.8305C239.675 32.8305 238.694 32.4465 237.883 31.6785C237.115 30.8679 236.731 29.8865 236.731 28.7345C236.731 27.5825 237.115 26.6225 237.883 25.8545C238.694 25.0865 239.675 24.7025 240.827 24.7025C241.936 24.7025 242.875 25.1079 243.643 25.9185C244.454 26.6865 244.859 27.6252 244.859 28.7345Z" fill="#003366"/>
<path d="M292.115 43.7745C292.115 44.9692 291.71 45.9719 290.899 46.7825C290.131 47.5932 289.15 47.9985 287.955 47.9985C286.76 47.9985 285.758 47.6145 284.947 46.8465C284.136 46.0359 283.731 45.0332 283.731 43.8385V36.4785C283.731 35.2412 283.283 34.1745 282.387 33.2785C281.491 32.3825 280.424 31.9345 279.187 31.9345C277.907 31.9345 276.819 32.3825 275.923 33.2785C275.07 34.1319 274.643 35.1985 274.643 36.4785V42.2385C274.643 43.8172 274.067 45.1825 272.915 46.3345C271.806 47.4439 270.462 47.9985 268.883 47.9985H266.259C264.68 47.9985 263.315 47.4439 262.163 46.3345C261.054 45.1825 260.499 43.8172 260.499 42.2385V22.9105C260.499 21.3319 261.054 19.9879 262.163 18.8785C263.315 17.7265 264.68 17.1505 266.259 17.1505H266.707C267.987 17.1505 269.139 17.5559 270.163 18.3665C272.126 17.5132 274.174 17.0865 276.307 17.0865C280.787 17.0865 284.542 18.6439 287.571 21.7585C290.6 24.8732 292.115 28.6705 292.115 33.1505V43.7745Z" fill="#003366"/>
<path d="M326.428 22.9105L326.364 50.4945C326.364 54.8892 324.828 58.6012 321.756 61.6305C318.726 64.7025 315.014 66.2385 310.62 66.2385C307.633 66.2385 304.838 65.4492 302.236 63.8705C301.382 63.3585 300.316 62.3772 299.036 60.9265C297.756 59.4759 297.116 57.8545 297.116 56.0625C297.116 54.1425 297.798 52.4999 299.164 51.1345C300.529 49.7692 302.172 49.0865 304.092 49.0865C306.054 49.0865 307.697 49.8119 309.02 51.2625C309.062 51.3479 309.489 52.0519 310.299 53.3745C310.726 54.0572 311.302 54.3985 312.027 54.3985C312.71 54.3985 313.286 54.1425 313.756 53.6305C314.268 53.1612 314.523 52.5852 314.523 51.9025L314.46 48.1905C313.222 48.5319 311.942 48.7025 310.62 48.7025C306.182 48.7025 302.427 47.1879 299.355 44.1585C296.326 41.0865 294.812 37.3319 294.812 32.8945C294.812 28.4999 296.348 24.7879 299.42 21.7585C302.492 18.6865 306.225 17.1505 310.62 17.1505C312.71 17.1505 314.737 17.5559 316.7 18.3665C317.724 17.5559 318.897 17.1505 320.22 17.1505H320.668C322.246 17.1505 323.59 17.7265 324.7 18.8785C325.852 19.9879 326.428 21.3319 326.428 22.9105ZM312.859 30.1425C312.859 28.8199 312.412 27.7319 311.516 26.8785C310.662 26.0252 309.574 25.5985 308.252 25.5985C306.588 25.5985 305.307 26.3025 304.411 27.7105C303.942 28.4785 303.708 29.2892 303.708 30.1425C303.708 31.5505 304.156 32.6812 305.052 33.5345C305.99 34.3452 307.142 34.7505 308.508 34.7505C310.044 34.7505 311.26 34.0252 312.156 32.5745C312.625 31.8065 312.859 30.9959 312.859 30.1425ZM307.868 38.9745C308.294 38.2919 308.166 37.7372 307.484 37.3105C306.801 36.8839 306.246 37.0119 305.82 37.6945C305.393 38.3772 305.521 38.9319 306.204 39.3585C306.886 39.7852 307.441 39.6572 307.868 38.9745ZM304.092 34.9425C304.092 34.3452 303.857 33.8332 303.388 33.4065C302.961 32.9372 302.449 32.7025 301.852 32.7025C301.212 32.7025 300.678 32.9159 300.252 33.3425C299.825 33.7692 299.612 34.3025 299.612 34.9425C299.612 36.4359 300.358 37.1825 301.852 37.1825C302.492 37.1825 303.025 36.9692 303.452 36.5425C303.878 36.1159 304.092 35.5825 304.092 34.9425Z" fill="#003366"/>
<path d="M343.717 8.12653L340.326 11.7105L338.854 16.5105L334.374 14.3345L329.382 14.4625L330.022 9.53453L328.422 4.86253L333.286 3.90253L337.254 0.894531L339.622 5.24653L343.717 8.12653ZM341.03 42.2385C341.03 43.8172 340.454 45.1825 339.302 46.3345C338.192 47.4439 336.848 47.9985 335.27 47.9985H334.822C333.243 47.9985 331.878 47.4439 330.726 46.3345C329.616 45.1825 329.062 43.8172 329.062 42.2385V22.9105C329.062 21.3319 329.616 19.9879 330.726 18.8785C331.878 17.7265 333.243 17.1505 334.822 17.1505H335.27C336.848 17.1505 338.192 17.7265 339.302 18.8785C340.454 19.9879 341.03 21.3319 341.03 22.9105V42.2385Z" fill="#003366"/>
<path d="M375.178 43.7745C375.178 44.9692 374.772 45.9719 373.962 46.7825C373.194 47.5932 372.212 47.9985 371.018 47.9985C369.823 47.9985 368.82 47.6145 368.01 46.8465C367.199 46.0359 366.794 45.0332 366.794 43.8385V36.4785C366.794 35.2412 366.346 34.1745 365.45 33.2785C364.554 32.3825 363.487 31.9345 362.25 31.9345C360.97 31.9345 359.882 32.3825 358.986 33.2785C358.132 34.1319 357.706 35.1985 357.706 36.4785V42.2385C357.706 43.8172 357.13 45.1825 355.978 46.3345C354.868 47.4439 353.524 47.9985 351.946 47.9985H349.322C347.743 47.9985 346.378 47.4439 345.226 46.3345C344.116 45.1825 343.562 43.8172 343.562 42.2385V22.9105C343.562 21.3319 344.116 19.9879 345.226 18.8785C346.378 17.7265 347.743 17.1505 349.322 17.1505H349.77C351.05 17.1505 352.202 17.5559 353.226 18.3665C355.188 17.5132 357.236 17.0865 359.37 17.0865C363.85 17.0865 367.604 18.6439 370.634 21.7585C373.663 24.8732 375.178 28.6705 375.178 33.1505V43.7745Z" fill="#003366"/>
<path d="M406.354 26.5585C406.354 29.2039 405.437 31.4439 403.602 33.2785C401.81 35.1132 399.591 36.0305 396.946 36.0305H393.81C392.53 36.0305 391.89 36.6705 391.89 37.9505C391.89 39.2305 392.53 39.8705 393.81 39.8705H402.066C403.218 39.8705 404.178 40.2759 404.946 41.0865C405.757 41.8545 406.162 42.8145 406.162 43.9665C406.162 45.1185 405.757 46.0999 404.946 46.9105C404.178 47.6785 403.218 48.0625 402.066 48.0625H393.298C388.989 48.0625 385.341 46.5692 382.354 43.5825C379.367 40.5532 377.874 36.8839 377.874 32.5745C377.874 28.2652 379.367 24.6172 382.354 21.6305C385.341 18.6439 388.989 17.1505 393.298 17.1505H396.946C399.549 17.1505 401.767 18.0679 403.602 19.9025C405.437 21.7372 406.354 23.9559 406.354 26.5585ZM398.61 26.4305C398.61 25.8332 398.397 25.3212 397.97 24.8945C397.543 24.4679 397.031 24.2545 396.434 24.2545C394.941 24.2545 394.194 24.9799 394.194 26.4305C394.194 27.9239 394.941 28.6705 396.434 28.6705C397.885 28.6705 398.61 27.9239 398.61 26.4305ZM394.322 22.9745C394.322 21.9505 393.81 21.4385 392.786 21.4385C391.762 21.4385 391.25 21.9505 391.25 22.9745C391.25 23.9985 391.762 24.5105 392.786 24.5105C393.81 24.5105 394.322 23.9985 394.322 22.9745ZM393.234 28.7345C393.234 27.6252 392.829 26.6865 392.018 25.9185C391.25 25.1079 390.311 24.7025 389.202 24.7025C388.05 24.7025 387.069 25.0865 386.258 25.8545C385.49 26.6225 385.106 27.5825 385.106 28.7345C385.106 29.8865 385.49 30.8679 386.258 31.6785C387.069 32.4465 388.05 32.8305 389.202 32.8305C390.354 32.8305 391.314 32.4465 392.082 31.6785C392.85 30.8679 393.234 29.8865 393.234 28.7345Z" fill="#003366"/>
</g>
<defs>
<filter id="filter0_d_10_47" x="0.424011" y="0.894531" width="405.93" height="68.3438" filterUnits="userSpaceOnUse" color-interpolation-filters="sRGB">
<feFlood flood-opacity="0" result="BackgroundImageFix"/>
<feColorMatrix in="SourceAlpha" type="matrix" values="0 0 0 0 0 0 0 0 0 0 0 0 0 0 0 0 0 0 127 0" result="hardAlpha"/>
<feOffset dy="3"/>
<feComposite in2="hardAlpha" operator="out"/>
<feColorMatrix type="matrix" values="0 0 0 0 0.312257 0 0 0 0 0.750236 0 0 0 0 0.996599 0 0 0 1 0"/>
<feBlend mode="normal" in2="BackgroundImageFix" result="effect1_dropShadow_10_47"/>
<feBlend mode="normal" in="SourceGraphic" in2="effect1_dropShadow_10_47" result="shape"/>
</filter>
</defs>
</svg>
